<?xml version="1.0" encoding="UTF-8" standalone="no"?>
<!-- Created with Inkscape (http://www.inkscape.org/) -->

<svg
   xmlns:dc="http://purl.org/dc/elements/1.1/"
   xmlns:cc="http://creativecommons.org/ns#"
   xmlns:rdf="http://www.w3.org/1999/02/22-rdf-syntax-ns#"
   xmlns:svg="http://www.w3.org/2000/svg"
   xmlns="http://www.w3.org/2000/svg"
   xmlns:xlink="http://www.w3.org/1999/xlink"
   xmlns:sodipodi="http://sodipodi.sourceforge.net/DTD/sodipodi-0.dtd"
   xmlns:inkscape="http://www.inkscape.org/namespaces/inkscape"
   width="463.35645"
   height="244.26167"
   id="svg2"
   version="1.1"
   inkscape:version="0.47 r22583"
   sodipodi:docname="x-cookie.svg">
  <title
     id="title3638">X Choclate Chip Cookie</title>
  <defs
     id="defs4">
    <linearGradient
       id="linearGradient3702">
      <stop
         style="stop-color:#9c7a55;stop-opacity:0.59607846;"
         offset="0"
         id="stop3704" />
      <stop
         style="stop-color:#ffffff;stop-opacity:0;"
         offset="1"
         id="stop3706" />
    </linearGradient>
    <inkscape:perspective
       sodipodi:type="inkscape:persp3d"
       inkscape:vp_x="0 : 526.18109 : 1"
       inkscape:vp_y="0 : 1000 : 0"
       inkscape:vp_z="744.09448 : 526.18109 : 1"
       inkscape:persp3d-origin="372.04724 : 350.78739 : 1"
       id="perspective10" />
    <radialGradient
       inkscape:collect="always"
       xlink:href="#linearGradient3702"
       id="radialGradient3708"
       cx="396.271"
       cy="476.33383"
       fx="396.271"
       fy="476.33383"
       r="210.87639"
       gradientTransform="matrix(1.0060459,0.02563085,-0.01354902,0.53181824,-12.920385,215.00835)"
       gradientUnits="userSpaceOnUse" />
    <inkscape:perspective
       id="perspective3650"
       inkscape:persp3d-origin="0.5 : 0.33333333 : 1"
       inkscape:vp_z="1 : 0.5 : 1"
       inkscape:vp_y="0 : 1000 : 0"
       inkscape:vp_x="0 : 0.5 : 1"
       sodipodi:type="inkscape:persp3d" />
  </defs>
  <sodipodi:namedview
     id="base"
     pagecolor="#ffffff"
     bordercolor="#666666"
     borderopacity="1.0"
     inkscape:pageopacity="0.0"
     inkscape:pageshadow="2"
     inkscape:zoom="0.45018582"
     inkscape:cx="-328.73278"
     inkscape:cy="527.95271"
     inkscape:document-units="px"
     inkscape:current-layer="layer1"
     showgrid="false"
     inkscape:window-width="1280"
     inkscape:window-height="968"
     inkscape:window-x="-4"
     inkscape:window-y="-4"
     inkscape:window-maximized="1" />
  <metadata
     id="metadata7">
    <rdf:RDF>
      <cc:Work
         rdf:about="">
        <dc:format>image/svg+xml</dc:format>
        <dc:type
           rdf:resource="http://purl.org/dc/dcmitype/StillImage" />
        <dc:title>X Choclate Chip Cookie</dc:title>
        <dc:description>A chocolate chip cookie in the shape of an &quot;X&quot;.  </dc:description>
        <dc:date>2010-06-22</dc:date>
        <dc:creator>
          <cc:Agent>
            <dc:title>Jordan Irwin</dc:title>
          </cc:Agent>
        </dc:creator>
        <cc:license
           rdf:resource="http://creativecommons.org/licenses/publicdomain/" />
      </cc:Work>
      <cc:License
         rdf:about="http://creativecommons.org/licenses/publicdomain/">
        <cc:permits
           rdf:resource="http://creativecommons.org/ns#Reproduction" />
        <cc:permits
           rdf:resource="http://creativecommons.org/ns#Distribution" />
        <cc:permits
           rdf:resource="http://creativecommons.org/ns#DerivativeWorks" />
      </cc:License>
    </rdf:RDF>
  </metadata>
  <g
     inkscape:label="Layer 1"
     inkscape:groupmode="layer"
     id="layer1"
     transform="translate(-143.57693,-365.24181)">
    <path
       style="fill:#86642b;fill-opacity:1;stroke:#000000;stroke-width:1px;stroke-linecap:butt;stroke-linejoin:miter;stroke-opacity:1"
       d="m 325.71429,367.36219 c -47.10267,-9.63617 -134.47872,26.27735 -132.85715,39.99999 -3.89526,9.9572 15.24459,31.10569 23.57737,45.71122 9.25844,11.28032 9.32322,21.72484 -2.36354,31.10104 -25.07061,12.93957 -73.56583,33.91247 -69.78526,45.3306 9.18275,38.82516 141.32968,82.32391 154.28572,79.28572 17.30287,2.18386 38.00183,-12.47571 62.48637,-42.65123 8.21105,-5.41418 16.4221,-8.41695 24.63315,1.23884 16.72973,30.8003 32.87803,40.10559 50.73762,41.41238 99.21037,3.20471 170.67911,-47.72823 170,-57.14285 -4.4523,-19.85655 -35.98012,-51.16412 -81.45512,-65.67977 -10.18437,-3.47235 -8.92348,-19.80185 -0.85871,-26.84562 25.34815,-15.53712 47.22171,-51.30577 38.7424,-59.61747 -3.25292,-11.4421 -57.37405,-31.08336 -135.71428,-32.14286 -18.60768,6.75213 -29.10212,14.3786 -39.42239,26.31036 -9.42147,7.63442 -14.16571,8.37067 -24.86332,-1.31036 -9.67765,-12.15222 -10.51947,-14.73064 -37.14286,-24.99999 z"
       id="path2820"
       sodipodi:nodetypes="ccccccccccccccccc" />
    <path
       style="fill:url(#radialGradient3708);fill-opacity:1;stroke:none"
       d="m 214.64285,484.50504 c -18.01021,8.84353 -28.18059,13.79491 -45.62499,23.03571 -10.81725,34.92715 127.57571,88.81656 145.625,80.89286 4.37872,1.54309 41.90284,-44.08435 46.07143,-52.5 1.52402,-6.56655 22.07327,-7.47533 25.71428,0.71429 11.37496,18.95752 26.07302,35.06666 42.14286,50 53.17816,18.80205 160.52195,-33.50393 161.59753,-60.5311 -20.76584,-19.16606 -34.53268,-28.65159 -62.5695,-38.68864 -3.08116,-0.68767 -4.84153,-1.98879 -6.61732,-3.36955 -6.41786,-8.90762 -10.3869,-22.76786 -12.23214,-35.35715 -0.55652,-6.36012 0.25839,-10.20779 5.25194,-13.01952 21.0158,-11.83345 43.8719,-39.45284 38.76591,-44.65904 -35.3551,-17.17877 -84.37333,-22.13266 -125.71428,-23.125 -13.29031,5.42194 -26.56895,10.96646 -38.92857,26.16071 -8.40159,6.23178 -13.41323,10.30158 -25.80357,-1.33929 -7.92942,-8.80586 -5.78783,-13.86922 -36.96428,-24.9107 -45.40677,-7.83802 -102.75601,18.05018 -110.71211,22.35731 -3.12273,16.93035 22.41921,47.80482 23.82266,51.78242 1.16222,2.53026 2.0763,5.0697 1.05839,9.14753 -7.06323,11.90588 -14.57097,23.53393 -24.88324,33.40916 z"
       id="path2822"
       sodipodi:nodetypes="ccccccccccsccccccccc" />
    <path
       style="fill:#28170b;stroke:none"
       d="m 232.14286,508.07647 c 0.63313,-8.47916 6.10988,-10.15789 13.21428,-11.42857 5.91794,2.12648 10.48006,7.0701 9.01786,10.62499 0,0 -0.80357,9.01786 -9.01786,9.01786 -8.21428,0 -12.85714,-4.28571 -12.85714,-4.28571 l -0.35714,-3.92857 z"
       id="path3596"
       sodipodi:nodetypes="cccscc" />
    <path
       style="fill:#28170b;stroke:none"
       d="m 321.07143,433.43361 c -9.28572,0 -16.78572,7.14286 -15.71429,9.64286 1.07143,2.5 2.5,10.71428 9.64286,9.28571 7.14286,-1.42857 6.42857,-6.78571 8.21429,-9.28571 1.78571,-2.5 -1.42858,-9.28572 -2.14286,-9.64286 z"
       id="path3598" />
    <path
       style="fill:#28170b;stroke:none"
       d="m 372.85714,442.36218 c 10.71429,2.14286 11.72319,8.36005 12.5,10.35714 1.56311,4.0186 -10.84017,12.9918 -13.92857,9.28572 0,0 -7.17891,-4.49159 -7.5,-9.28572 -0.36597,-5.46422 6.60815,-11.17289 8.92857,-10.35714 z"
       id="path3600"
       sodipodi:nodetypes="cscsc" />
    <path
       style="fill:#28170b;stroke:none"
       d="m 410,485.93361 c 7.93391,0.60292 14.1751,12.16297 8.57143,15.71429 -2.8459,1.80359 -15.35714,5.71428 -18.92857,1.42857 -3.57143,-4.28572 -10.87512,-4.50411 -7.5,-11.78572 3.95406,-8.53065 16.99424,-6.73778 17.85714,-5.35714 z"
       id="path3602"
       sodipodi:nodetypes="csssc" />
    <path
       style="fill:#28170b;stroke:none"
       d="m 471.32397,525.91567 c 8.0775,1.97697 11.89032,18.94651 11.89032,18.94651 0,0 -25,-0.35714 -27.5,-2.85714 -2.5,-2.5 -15.71429,-10.71429 -6.42858,-12.85714 9.28572,-2.14286 16.26949,-3.67604 22.03826,-3.23223 z"
       id="path3604"
       sodipodi:nodetypes="ccssc" />
    <path
       style="fill:#28170b;stroke:none"
       d="m 325,516.29075 c -4.4951,0.2207 -22.19066,9.22322 -10,12.85715 12.12973,3.61577 23.99666,5.73138 22.5,0.35714 -1.29796,-4.66072 -6.80133,-14.31722 -12.5,-13.21429 z"
       id="path3606"
       sodipodi:nodetypes="cssc" />
    <path
       style="fill:#28170b;stroke:none"
       d="m 326.07143,568.79075 c 0,0 13.21428,10 15.35714,10 2.14286,0 13.57143,-16.07143 14.28572,-18.57143 0.71428,-2.5 -11.78572,-5.35714 -15.35715,-5 -3.57143,0.35715 -15.71428,13.92858 -14.28571,13.57143 z"
       id="path3608" />
    <path
       style="fill:#28170b;stroke:none"
       d="m 214.28571,573.79075 c 0.0835,-3.86595 15.49098,-24.9889 23.57143,-18.92857 4.76852,3.39181 11.68055,8.77569 8.92857,13.57143 -4.95861,1.3284 -8.98273,8.80002 -13.03571,11.60715 -3.06123,2.12023 -20.17857,-1.82402 -19.46429,-6.25001 z"
       id="path3610"
       sodipodi:nodetypes="cccsc" />
    <path
       style="fill:#28170b;stroke:none"
       d="m 174.12946,560.55414 c -0.17946,-4.63541 1.05001,-9.27083 3.72768,-13.90624 -3.18602,-8.08316 -11.97012,-14.32999 -14.64285,-13.57143 -5.9841,2.71283 -7.19305,7.90167 -6.78572,13.92857 5.45855,5.19916 11.99704,9.83405 17.70089,13.5491 z"
       id="path3612"
       sodipodi:nodetypes="ccccc" />
    <path
       style="fill:#28170b;stroke:none"
       d="m 248.21429,407.36218 c -4.40853,-1.19424 -15.04953,6.72374 -12.85715,13.21429 0.57374,1.69856 8.81808,15.13982 12.14286,13.57143 2.49942,-1.17905 12.57357,-16.41677 9.64286,-21.07143 -2.48838,-2.10802 -3.80702,-4.70343 -8.92857,-5.71429 z"
       id="path3614"
       sodipodi:nodetypes="csscc" />
    <path
       style="fill:#28170b;stroke:none"
       d="m 242.85714,452.36218 c -3.27202,-1.49166 -3.31893,-1.83231 -6.07143,-1.25 -1.09119,4.75531 -6.07834,9.02271 -5.71428,13.03572 3.59157,2.10892 14.17621,6.82744 13.92857,1.42857 -0.23752,-5.17836 -0.80538,-12.71273 -2.14286,-13.21429 z"
       id="path3616"
       sodipodi:nodetypes="cccsc" />
    <path
       style="fill:#28170b;stroke:none"
       d="m 424.22072,427.19259 c 1.36525,-1.7847 16.26539,-9.54027 23.63642,-8.40184 2.49866,0.32903 9.73108,14.4432 1.78572,19.28572 -5.9046,3.59872 -14.11589,3.83008 -27.23215,3.66072 -5.27566,-3.07342 -0.31315,-12.37637 1.81001,-14.5446 z"
       id="path3618"
       sodipodi:nodetypes="ccscc" />
    <path
       style="fill:#28170b;stroke:none"
       d="m 429.28571,400.93361 c -5.90109,-8.21977 9.1033,-15.12162 11.42858,-13.57143 0,0 4.71153,4.01128 6.42857,7.14286 5.25312,9.58076 -5.2972,15.18437 -11.42857,11.07143 -3.31602,-2.22439 -5.71429,-4.28572 -6.42858,-4.64286 z"
       id="path3620"
       sodipodi:nodetypes="ccssc" />
    <path
       style="fill:#28170b;stroke:none"
       d="m 502.14286,409.86218 c 8.10787,2.46708 10.53765,6.35369 11.07143,10.71429 0,5.03579 -17.48854,18.6 -20.71429,8.92857 0,0 0,0 0,0 -7.5157,-3.57143 -2.39069,-20.35714 9.64286,-19.64286 z"
       id="path3622"
       sodipodi:nodetypes="ccssc" />
    <path
       style="fill:#28170b;stroke:none"
       d="m 533.57143,545.93361 c -0.2544,11.06654 3.54968,10.23518 23.57143,13.92857 12.73809,9.64286 20,8.45238 17.14285,-10.35714 -3.14211,-7.01403 -13.76733,-13.93568 -20,-15 -4.18947,-0.075 -17.35949,3.35909 -20.71428,11.42857 z"
       id="path3624"
       sodipodi:nodetypes="ccccc" />
    <path
       style="fill:#28170b;stroke:none"
       d="m 449.64286,578.79075 c -0.0104,5.00484 10.66338,9.37716 10.62499,14.64286 0,0 9.63043,7.27886 15.62501,5.44643 4.67442,-1.42888 6.33928,-11.25 6.33928,-11.25 0.8737,-4.99042 -5.85977,-9.57012 -10.53571,-11.78572 -7.35119,-1.02376 -23.98809,-3.67859 -22.05357,2.94643 z"
       id="path3628"
       sodipodi:nodetypes="ccsccc" />
    <path
       style="fill:#28170b;stroke:none"
       d="m 278.97912,547.28888 c -7.39787,5.06078 -3.49893,14.92097 -1.72672,17.67106 2.57298,4.5172 3.92903,4.82275 16.37983,2.68973 13.99336,-4.23413 9.46556,-9.85904 8.56118,-20.71792 -6.62018,-1.55782 -12.91078,-3.61003 -23.21429,0.35713 z"
       id="path3630"
       sodipodi:nodetypes="ccccc" />
    <path
       style="fill:#28170b;stroke:none"
       d="m 305.71429,473.07647 c 18.20628,-2.33285 20.59039,9.95882 20.17857,18.03572 1.45307,5.44903 -20.02538,0.83673 -23.57669,-1.57125 -4.76559,-3.23132 -1.3411,-16.62813 3.39812,-16.46447 z"
       id="path3632"
       sodipodi:nodetypes="ccsc" />
    <path
       style="fill:#28170b;stroke:none"
       d="m 278.57143,380.21932 c 12.7817,-1.48872 23.60081,6.13883 23.62713,10.06313 -1.0465,5.75078 -14.5409,11.9891 -28.62713,6.36545 0.67946,-5.44215 -0.24095,-10.82914 5,-16.42858 z"
       id="path3634"
       sodipodi:nodetypes="cccc" />
    <path
       style="fill:#28170b;stroke:none"
       d="m 402.14286,387.36218 c -7.26081,-2.97056 -1.84982,-6.04624 0.35714,-9.64285 3.34038,-5.06762 9.85771,-7.22128 13.39286,-7.5 4.13607,0.82666 7.48413,1.38186 4.82143,6.42857 -2.92709,7.44239 -8.08301,12.2503 -18.57143,10.71428 z"
       id="path3636"
       sodipodi:nodetypes="ccccc" />
    <path
       style="fill:#28170b;stroke:none"
       d="m 353.57143,398.79075 c -2.04667,8.36296 2.3331,12.18518 15.71428,12.14286 4.37664,-0.70142 7.45541,-7.73657 -0.17857,-15.35714 -7.8586,-7.84479 -14.01371,-3.00481 -15.53571,3.21428 z"
       id="path3638"
       sodipodi:nodetypes="ccss" />
    <path
       style="fill:#28170b;stroke:none"
       d="m 465,470.21932 c 12.59654,0.18873 12.78101,8.25643 8.88088,14.53082 -11.15596,2.183 -7.57947,4.0314 -22.03389,0.12255 -4.29758,0.75404 -6.06895,-9.55695 -5.41842,-14.65337 6.55481,-2.3282 12.17638,-2.48278 18.57143,0 z"
       id="path3640"
       sodipodi:nodetypes="ccccc" />
    <path
       style="fill:#28170b;stroke:none"
       d="m 514.64285,513.07646 c 0,0 1.07143,6.78572 14.64286,8.92858 6.78572,-3.92858 8.70275,-7.93584 11.42858,-16.78572 -0.71429,-9.28571 -7.50001,-9.64285 -16.42858,-10.71428 -5,2.14286 -8.57143,8.57143 -8.57143,8.57143 l -1.07143,9.99999 z"
       id="path3642"
       sodipodi:nodetypes="cccccc" />
    <path
       style="fill:#28170b;fill-opacity:1;stroke:none"
       d="m 210.61681,412.43054 c -3.67047,5.26957 -5.24642,11.06276 -3.53554,17.67767 4.20897,8.64356 8.41794,8.76 12.62691,12.62691 1.14394,-11.51754 2.94039,-21.73005 8.08122,-25.25381 2.44373,-9.85151 -11.40121,-9.47528 -17.17259,-5.05077 z"
       id="path3644"
       sodipodi:nodetypes="ccccc" />
    <path
       style="fill:#502d16;stroke:none"
       d="m 304.9398,475.69135 c 12.84152,5.09851 15.33571,9.18198 20.20305,16.28871 0.59036,-2.33432 -0.55755,-14.85221 -10.22779,-17.42513 -9.739,-2.59122 -9.72272,1.38896 -9.97526,1.13642 z"
       id="path3646"
       sodipodi:nodetypes="ccsc" />
    <path
       style="fill:#502d16;stroke:none"
       d="m 237.25958,453.72053 c 2.18866,3.19233 3.74598,-0.57228 5.93464,6.43972 0,0 1.6211,-4.975 -0.88388,-6.56599 -5.35598,-3.40174 -5.05076,0.25254 -5.05076,0.12627 z"
       id="path3648"
       sodipodi:nodetypes="ccsc" />
    <path
       style="fill:#502d16;stroke:none"
       d="m 238.14346,500.06128 c 0,0 6.06092,-1.6415 9.47018,2.14657 3.40927,3.78807 4.79823,6.43972 4.79823,6.43972 0,0 1.89403,-6.43972 -1.26269,-7.82868 -3.15673,-1.38896 -6.81853,-3.6618 -8.83884,-2.90419 -2.0203,0.75762 -4.16688,2.39912 -4.16688,2.14658 z"
       id="path3650" />
    <path
       style="fill:#502d16;stroke:none"
       d="m 319.96582,520.51687 c -0.33145,-0.20472 4.80911,-3.44264 6.81853,-2.65165 3.2074,1.26256 8.88703,9.02594 8.71256,9.09137 -4.85458,-2.54963 -9.74369,-5.05611 -15.53109,-6.43972 z"
       id="path3652"
       sodipodi:nodetypes="cscc" />
    <path
       style="fill:#502d16;stroke:none"
       d="m 311.92684,436.95476 c 6.37222,-0.83981 8.11208,2.95276 11.44824,5.14902 0.17779,-2.56536 -0.47118,-4.9804 -2.90418,-7.07107 -1.96665,-2.1999 -7.1108,-0.14985 -8.54406,1.92205 z"
       id="path3654"
       sodipodi:nodetypes="cccc" />
    <path
       style="fill:#502d16;stroke:none"
       d="m 238.396,413.4407 c 4.58078,-2.35791 18.84795,5.15587 16.79379,6.43972 1.10955,-1.37678 1.6379,-2.59353 1.57387,-4.90917 -3.00477,-3.2576 -5.64203,-6.69199 -11.6754,-6.45505 -2.5797,0.59465 -4.55722,2.99585 -6.69226,4.9245 z"
       id="path3656"
       sodipodi:nodetypes="ccccc" />
    <path
       style="fill:#502d16;stroke:none"
       d="m 226.90552,559.28147 c -0.45104,1.85113 8.3959,7.8129 15.40482,10.10153 0,0 5.02474,-1.08651 4.41942,-4.41942 -0.22632,-1.24614 -9.32023,-10.42019 -11.61676,-10.54347 -2.36655,-0.12704 -6.95831,2.74887 -8.20748,4.86136 z"
       id="path3658"
       sodipodi:nodetypes="ccssc" />
    <path
       style="fill:#502d16;stroke:none"
       d="m 174.81952,548.67487 c -2.84105,-3.34613 -12.13189,-8.35808 -14.20527,-12.87945 2.73405,-5.43957 10.71311,2.06281 14.20527,6.7554 4.04062,5.42957 0.25254,6.37659 0,6.12405 z"
       id="path3660"
       sodipodi:nodetypes="ccsc" />
    <path
       style="fill:#502d16;stroke:none"
       d="m 336.12826,558.7764 c 1.1783,1.89467 14.20089,3.67495 17.42513,3.53553 0,0 1.88374,-1.96154 -0.70777,-3.45399 -1.83887,-1.059 -6.13468,-2.29323 -9.58316,-2.79633 -3.09171,-0.45105 -3.59867,0.50508 -7.1342,2.71479 z"
       id="path3662"
       sodipodi:nodetypes="ccssc" />
    <path
       style="fill:#502d16;stroke:none"
       d="m 453.9373,576.95914 c 7.93314,1.11276 23.1604,7.3766 25.88516,10.73287 0,0 -0.14558,-10.71794 -15.48931,-12.13977 -9.86912,-0.91452 -10.52212,1.4069 -10.39585,1.4069 z"
       id="path3664"
       sodipodi:nodetypes="ccsc" />
    <path
       style="fill:#502d16;stroke:none"
       d="m 457.2203,529.22943 c 4.81012,0.98296 20.20243,8.80417 25.00127,14.39467 -1.60338,-3.78955 -0.44194,-7.82868 -10.35407,-16.54124 -5.24016,-1.4521 -11.93242,0.82074 -14.6472,2.14657 z"
       id="path3666"
       sodipodi:nodetypes="cccc" />
    <path
       style="fill:#502d16;stroke:none"
       d="m 277.84283,552.14146 c 7.37297,-1.64796 25.17193,5.67745 24.11739,6.06092 0,0 2.23082,-9.22175 -8.46003,-10.10153 -10.83462,-0.89161 -15.39054,4.14918 -15.65736,4.04061 z"
       id="path3668"
       sodipodi:nodetypes="ccsc" />
    <path
       style="fill:#502d16;stroke:none"
       d="m 539.29519,544.00291 c 10.11646,-1.29248 22.64012,4.28122 32.95623,8.96511 3.19942,-0.59989 -9.86839,-15.73965 -18.00309,-16.08476 -7.95681,-0.33756 -15.91997,6.22679 -14.95314,7.11965 z"
       id="path3670"
       sodipodi:nodetypes="ccsc" />
    <path
       style="fill:#502d16;stroke:none"
       d="m 519.72349,501.95531 c 3.28299,-0.12627 19.31916,3.15673 19.31916,3.15673 0,0 -4.16688,-7.70241 -8.71256,-7.70241 -4.54569,0 -10.85914,4.54568 -10.6066,4.54568 z"
       id="path3672" />
    <path
       style="fill:#502d16;stroke:none"
       d="m 394.21203,492.35886 c 10.22286,-3.1444 21.82039,4.8344 24.36993,4.29315 2.09487,-0.44473 -7.19361,-12.40948 -16.79378,-10.10152 -4.62148,1.11104 -4.79823,3.15672 -7.57615,5.80837 z"
       id="path3674"
       sodipodi:nodetypes="cssc" />
    <path
       style="fill:#502d16;stroke:none"
       d="m 450.78057,473.54477 c 2.46687,1.92005 17.66601,8.6897 19.69798,6.69226 1.90051,-2.98369 -1.28015,-8.16084 -6.81853,-7.82867 -3.53553,-1.51524 -12.75318,-2.52539 -12.87945,1.13641 z"
       id="path3676"
       sodipodi:nodetypes="cccc" />
    <path
       style="fill:#502d16;stroke:none"
       d="m 426.53691,427.7091 c 7.51341,-2.05928 27.47817,0.33545 24.87501,1.13642 0,0 1.72834,-8.4829 -6.56599,-8.08122 -9.29114,0.44995 -18.29877,6.85779 -18.30902,6.9448 z"
       id="path3678"
       sodipodi:nodetypes="ccsc" />
    <path
       style="fill:#502d16;stroke:none"
       d="m 430.32499,395.51049 c 1.29185,-2.80555 16.70076,-0.30634 16.22557,1.51523 1.22947,-0.43909 -3.5125,-8.1311 -7.1342,-8.46003 -4.67346,-0.42446 -9.79011,6.24208 -9.09137,6.9448 z"
       id="path3680"
       sodipodi:nodetypes="ccsc" />
    <path
       style="fill:#502d16;stroke:none"
       d="m 403.93475,379.22178 c 0.77448,-2.42905 16.19524,-5.70929 16.41498,-4.92449 0,0 -3.46264,-4.45544 -8.14436,-2.62009 -9.11278,3.57245 -8.14435,7.54458 -8.27062,7.54458 z"
       id="path3682"
       sodipodi:nodetypes="ccsc" />
    <path
       style="fill:#502d16;stroke:none"
       d="m 358.67944,393.71712 c 3.30094,1.14404 12.43936,8.75682 12.93043,12.39997 4.56597,-2.16309 -3.33524,-11.09757 -7.83132,-12.91139 -4.53414,-2.08382 -5.22538,0.76396 -5.09911,0.51142 z"
       id="path3684"
       sodipodi:nodetypes="cccc" />
    <path
       style="fill:#502d16;stroke:none"
       d="m 278.54956,383.51493 c 8.43894,1.0123 14.73731,3.9511 20.8344,7.07107 0,0 3.21519,-1.82118 -6.06091,-6.69227 -12.20637,-6.40984 -15.45301,-1.14532 -14.77349,-0.3788 z"
       id="path3686"
       sodipodi:nodetypes="ccsc" />
    <path
       style="fill:#502d16;stroke:none"
       d="m 211.8795,413.4407 c 5.88286,0.22014 10.77301,1.16514 14.89975,3.40926 0,0 0.009,-5.59858 -3.71148,-6.31345 -3.25236,-0.625 -4.42739,-0.74802 -6.83122,-0.0613 -2.12491,0.60706 -4.35705,3.218 -4.35705,2.96547 z"
       id="path3688"
       sodipodi:nodetypes="ccssc" />
    <path
       style="fill:#502d16;stroke:none"
       d="m 495.10102,413.06189 c 2.41065,-1.24363 16.89997,8.40813 16.03617,9.34391 0,0 1.50779,-4.28599 -2.02031,-7.95495 -2.98151,-3.10054 -5.87373,-4.82259 -10.10152,-3.40927 -4.16568,1.39256 -3.78807,2.27285 -3.91434,2.02031 z"
       id="path3690"
       sodipodi:nodetypes="ccssc" />
    <path
       style="fill:#502d16;stroke:none"
       d="m 366.93791,447.78588 c 3.43512,-1.93281 16.97002,3.33431 16.41498,4.16688 0,0 -1.93547,-4.76043 -6.31345,-7.07107 -5.98626,-3.15947 -10.12282,2.66157 -10.10153,2.90419 z"
       id="path3692"
       sodipodi:nodetypes="ccsc" />
    <path
       style="fill:#28170b;stroke:none"
       d="m 531.4006,400.70437 c -5.90109,-8.21977 8.51429,-14.82711 10.83957,-13.27692 0,0 5.30054,3.71677 7.01758,6.84835 5.25312,9.58076 0.88743,4.68032 -7.79633,8.51904 -3.65206,1.61443 -9.34653,-1.73333 -10.06082,-2.09047 z"
       id="path3620-1"
       sodipodi:nodetypes="ccssc" />
    <path
       style="fill:#502d16;stroke:none"
       d="m 532.43988,395.28125 c 7.86916,-4.57259 12.185,-3.74225 16.22557,1.51523 1.22947,-0.43909 -3.5125,-8.1311 -7.1342,-8.46003 -4.67346,-0.42446 -9.79011,6.24208 -9.09137,6.9448 z"
       id="path3680-7"
       sodipodi:nodetypes="ccsc" />
  </g>
</svg>
